<?xml version="1.0" encoding="utf-8"?>
<svg version="1.1" xmlns:xlink="http://www.w3.org/1999/xlink" width="30px" height="40px" xmlns="http://www.w3.org/2000/svg">
  <g transform="matrix(1 0 0 1 -358 -540 )">
    <path d="M 373 579.036928468354  C 367.2 569.40734059591  358.5 563.629587872444  358.5 554  C 358.5 548.985714285714  361.4 540.5  373 540.5  C 384.6 540.5  387.5 548.985714285714  387.5 554  C 387.5 563.629587872444  378.8 569.40734059591  373 579.036928468354  Z " fill-rule="nonzero" fill="#009dd9" stroke="none" />
    <path d="M 373 580  C 367 570  358 564  358 554  C 358 548.8  361 540  373 540  C 385 540  388 548.8  388 554  C 388 564  379 570  373 580  Z M 373 578.073856936707  C 378.6 568.81468119182  387 563.259175744887  387 554  C 387 549.171428571429  384.2 541  373 541  C 361.8 541  359 549.171428571429  359 554  C 359 563.259175744887  367.4 568.81468119182  373 578.073856936707  Z " fill-rule="nonzero" fill="#ffffff" stroke="none" />
  </g>
</svg>